# xmcd
#
# Track frame offsets:
#	152
#	13662
#	23527
#	37500
#	53612
#	69115
#	82642
#	101377
#	116107
#	136160
#	155450
#	171332
#	185245
#
# Disc length: 2684 seconds
# Revision: 0
# Processed by: cddbd v1.5.2PL0 Copyright (c) Steve Scherf et al.
# Submitted via: dBpowerAMP V12.0
#
DISCID=8f0a7a0d
DTITLE=The Bull Durham Band - Bull Durham: The Band
DYEAR=1997
DGENRE=Country
TTITLE0=Wabash
TTITLE1=Lovin Time In Texas
TTITLE2=A Long Time Ago
TTITLE3=If You Ever Leave
TTITLE4=Get Over Him
TTITLE5=Shame
TTITLE6=More
TTITLE7=Midnight Lasts Forever
TTITLE8=I Want To Know
TTITLE9=Tennessee Stud
TTITLE10=Her Heart Said Yes
TTITLE11=I'm Not Over You
TTITLE12=Two Step Cowboy
EXTD=
EXTT0=
EXTT1=
EXTT2=
EXTT3=
EXTT4=
EXTT5=
EXTT6=
EXTT7=
EXTT8=
EXTT9=
EXTT10=
EXTT11=
EXTT12=
PLAYORDER=
